<svg width="24" height="24" viewBox="0 0 24 24" fill="none" xmlns="http://www.w3.org/2000/svg">
    <rect width="24" height="24" fill="white" fill-opacity="0.01"/>
    <path d="M14.8231 15.8831C13.7125 16.725 12.3237 17.114 10.9373 16.9714C9.55098 16.8287 8.27048 16.1651 7.35462 15.1146C6.43876 14.0642 5.95584 12.7052 6.00346 11.3123C6.05108 9.91947 6.62569 8.59663 7.61116 7.61116C8.59663 6.62569 9.91947 6.05108 11.3123 6.00346C12.7052 5.95584 14.0642 6.43876 15.1146 7.35462C16.1651 8.27048 16.8287 9.55098 16.9714 10.9373C17.114 12.3237 16.725 13.7125 15.8831 14.8231L18.5301 17.4701C18.8231 17.7631 19.0601 18.0601 18.5301 18.5301C18.0001 19.0001 17.7631 18.8231 17.4701 18.5301L14.8231 15.8831ZM11.5001 15.5001C12.5609 15.5001 13.5783 15.0786 14.3285 14.3285C15.0786 13.5783 15.5001 12.5609 15.5001 11.5001C15.5001 10.4392 15.0786 9.42177 14.3285 8.67162C13.5783 7.92148 12.5609 7.50005 11.5001 7.50005C10.4392 7.50005 9.42177 7.92148 8.67162 8.67162C7.92148 9.42177 7.50005 10.4392 7.50005 11.5001C7.50005 12.5609 7.92148 13.5783 8.67162 14.3285C9.42177 15.0786 10.4392 15.5001 11.5001 15.5001Z"
          fill="#42526E"/>
</svg>
