<?xml version="1.0" encoding="UTF-8"?>
<svg fill="none" viewBox="0 0 56 56" xmlns="http://www.w3.org/2000/svg">
    <path d="m28 0.44434c15.194 0 27.556 12.362 27.556 27.556s-12.362 27.556-27.556 27.556-27.556-12.362-27.556-27.556 12.362-27.556 27.556-27.556zm-10.598 29.675h8.4787v8.4787c0 0.5621 0.2233 1.1013 0.6208 1.4988s0.9366 0.6208 1.4988 0.6208 1.1013-0.2233 1.4988-0.6208 0.6209-0.9367 0.6209-1.4988v-8.4787h8.4786c0.5622 0 1.1013-0.2233 1.4988-0.6208s0.6209-0.9366 0.6209-1.4988-0.2234-1.1013-0.6209-1.4988-0.9366-0.6209-1.4988-0.6209h-8.4786v-8.4786c0-0.5622-0.2234-1.1013-0.6209-1.4988s-0.9366-0.6209-1.4988-0.6209-1.1013 0.2234-1.4988 0.6209-0.6208 0.9366-0.6208 1.4988v8.4786h-8.4787c-0.5621 0-1.1013 0.2234-1.4988 0.6209s-0.6208 0.9366-0.6208 1.4988 0.2233 1.1013 0.6208 1.4988 0.9367 0.6208 1.4988 0.6208z"
          fill="#CDCDCD"/>
</svg>

